<?xml version="1.0" standalone="no"?><!DOCTYPE svg PUBLIC "-//W3C//DTD SVG 1.1//EN" "http://www.w3.org/Graphics/SVG/1.1/DTD/svg11.dtd"><svg t="1714624277538" class="icon" viewBox="0 0 1024 1024" version="1.1" xmlns="http://www.w3.org/2000/svg" p-id="1185" xmlns:xlink="http://www.w3.org/1999/xlink" width="200" height="200"><path d="M512 174.08a30.72 30.72 0 0 1 0 61.44H279.27552A43.75552 43.75552 0 0 0 235.52 279.27552v465.44896A43.75552 43.75552 0 0 0 279.27552 788.48h465.44896A43.75552 43.75552 0 0 0 788.48 744.72448V474.76736a30.72 30.72 0 1 1 61.44 0v269.95712C849.92 802.82624 802.816 849.92 744.72448 849.92H279.27552C221.17376 849.92 174.08 802.816 174.08 744.72448V279.27552C174.08 221.17376 221.184 174.08 279.27552 174.08H512z m92.16 430.08a30.72 30.72 0 0 1 0 61.44H419.84a30.72 30.72 0 0 1 0-61.44h184.32z m202.74176-387.06176a30.72 30.72 0 0 1 0 43.44832L560.71168 506.7264a30.72 30.72 0 0 1-43.43808-43.43808L763.45344 217.088a30.72 30.72 0 0 1 43.44832 0z" fill="#b7bcc1" p-id="1186"></path></svg>